<svg width="32" height="32" viewBox="0 0 32 32" fill="none" xmlns="http://www.w3.org/2000/svg">
<mask id="mask0_5_237" style="mask-type:alpha" maskUnits="userSpaceOnUse" x="0" y="0" width="32" height="32">
<rect width="32" height="32" fill="#D9D9D9"/>
</mask>
<g mask="url(#mask0_5_237)">
<path d="M1.33331 26.6667V22.9333C1.33331 22.1778 1.52776 21.4833 1.91665 20.85C2.30554 20.2167 2.8222 19.7333 3.46665 19.4C4.84442 18.7111 6.24442 18.1944 7.66665 17.85C9.08887 17.5056 10.5333 17.3333 12 17.3333C13.4666 17.3333 14.9111 17.5056 16.3333 17.85C17.7555 18.1944 19.1555 18.7111 20.5333 19.4C21.1778 19.7333 21.6944 20.2167 22.0833 20.85C22.4722 21.4833 22.6666 22.1778 22.6666 22.9333V26.6667H1.33331ZM25.3333 26.6667V22.6667C25.3333 21.6889 25.0611 20.75 24.5166 19.85C23.9722 18.95 23.2 18.1778 22.2 17.5333C23.3333 17.6667 24.4 17.8944 25.4 18.2167C26.4 18.5389 27.3333 18.9333 28.2 19.4C29 19.8444 29.6111 20.3389 30.0333 20.8833C30.4555 21.4278 30.6666 22.0222 30.6666 22.6667V26.6667H25.3333ZM12 16C10.5333 16 9.27776 15.4778 8.23331 14.4333C7.18887 13.3889 6.66665 12.1333 6.66665 10.6667C6.66665 9.2 7.18887 7.94445 8.23331 6.9C9.27776 5.85556 10.5333 5.33334 12 5.33334C13.4666 5.33334 14.7222 5.85556 15.7666 6.9C16.8111 7.94445 17.3333 9.2 17.3333 10.6667C17.3333 12.1333 16.8111 13.3889 15.7666 14.4333C14.7222 15.4778 13.4666 16 12 16ZM25.3333 10.6667C25.3333 12.1333 24.8111 13.3889 23.7666 14.4333C22.7222 15.4778 21.4666 16 20 16C19.7555 16 19.4444 15.9722 19.0666 15.9167C18.6889 15.8611 18.3778 15.8 18.1333 15.7333C18.7333 15.0222 19.1944 14.2333 19.5166 13.3667C19.8389 12.5 20 11.6 20 10.6667C20 9.73334 19.8389 8.83334 19.5166 7.96667C19.1944 7.1 18.7333 6.31111 18.1333 5.6C18.4444 5.48889 18.7555 5.41667 19.0666 5.38334C19.3778 5.35 19.6889 5.33334 20 5.33334C21.4666 5.33334 22.7222 5.85556 23.7666 6.9C24.8111 7.94445 25.3333 9.2 25.3333 10.6667ZM3.99998 24H20V22.9333C20 22.6889 19.9389 22.4667 19.8166 22.2667C19.6944 22.0667 19.5333 21.9111 19.3333 21.8C18.1333 21.2 16.9222 20.75 15.7 20.45C14.4778 20.15 13.2444 20 12 20C10.7555 20 9.5222 20.15 8.29998 20.45C7.07776 20.75 5.86665 21.2 4.66665 21.8C4.46665 21.9111 4.30554 22.0667 4.18331 22.2667C4.06109 22.4667 3.99998 22.6889 3.99998 22.9333V24ZM12 13.3333C12.7333 13.3333 13.3611 13.0722 13.8833 12.55C14.4055 12.0278 14.6666 11.4 14.6666 10.6667C14.6666 9.93334 14.4055 9.30556 13.8833 8.78334C13.3611 8.26111 12.7333 8 12 8C11.2666 8 10.6389 8.26111 10.1166 8.78334C9.59442 9.30556 9.33331 9.93334 9.33331 10.6667C9.33331 11.4 9.59442 12.0278 10.1166 12.55C10.6389 13.0722 11.2666 13.3333 12 13.3333Z" fill="#393E46"/>
</g>
</svg>
