<svg width="32" height="32" viewBox="0 0 32 32" fill="none" xmlns="http://www.w3.org/2000/svg">
<mask id="mask0_5_255" style="mask-type:alpha" maskUnits="userSpaceOnUse" x="0" y="0" width="32" height="32">
<rect width="32" height="32" fill="#D9D9D9"/>
</mask>
<g mask="url(#mask0_5_255)">
<path d="M16 28L14.0666 26.2667C11.8222 24.2444 9.96663 22.5 8.49996 21.0333C7.03329 19.5667 5.86663 18.25 4.99996 17.0833C4.13329 15.9167 3.52774 14.8444 3.18329 13.8667C2.83885 12.8889 2.66663 11.8889 2.66663 10.8667C2.66663 8.77778 3.36663 7.03333 4.76663 5.63333C6.16663 4.23333 7.91107 3.53333 9.99996 3.53333C11.1555 3.53333 12.2555 3.77778 13.3 4.26667C14.3444 4.75556 15.2444 5.44444 16 6.33333C16.7555 5.44444 17.6555 4.75556 18.7 4.26667C19.7444 3.77778 20.8444 3.53333 22 3.53333C24.0888 3.53333 25.8333 4.23333 27.2333 5.63333C28.6333 7.03333 29.3333 8.77778 29.3333 10.8667C29.3333 11.8889 29.1611 12.8889 28.8166 13.8667C28.4722 14.8444 27.8666 15.9167 27 17.0833C26.1333 18.25 24.9666 19.5667 23.5 21.0333C22.0333 22.5 20.1777 24.2444 17.9333 26.2667L16 28ZM16 24.4C18.1333 22.4889 19.8888 20.85 21.2666 19.4833C22.6444 18.1167 23.7333 16.9278 24.5333 15.9167C25.3333 14.9056 25.8888 14.0056 26.2 13.2167C26.5111 12.4278 26.6666 11.6444 26.6666 10.8667C26.6666 9.53333 26.2222 8.42222 25.3333 7.53333C24.4444 6.64444 23.3333 6.2 22 6.2C20.9555 6.2 19.9888 6.49444 19.1 7.08333C18.2111 7.67222 17.6 8.42222 17.2666 9.33333H14.7333C14.4 8.42222 13.7888 7.67222 12.9 7.08333C12.0111 6.49444 11.0444 6.2 9.99996 6.2C8.66663 6.2 7.55552 6.64444 6.66663 7.53333C5.77774 8.42222 5.33329 9.53333 5.33329 10.8667C5.33329 11.6444 5.48885 12.4278 5.79996 13.2167C6.11107 14.0056 6.66663 14.9056 7.46663 15.9167C8.26663 16.9278 9.35552 18.1167 10.7333 19.4833C12.1111 20.85 13.8666 22.4889 16 24.4Z" fill="#393E46"/>
</g>
</svg>
