<svg width="32" height="32" viewBox="0 0 32 32" fill="none" xmlns="http://www.w3.org/2000/svg">
<mask id="mask0_5_231" style="mask-type:alpha" maskUnits="userSpaceOnUse" x="0" y="0" width="32" height="32">
<rect width="32" height="32" fill="#D9D9D9"/>
</mask>
<g mask="url(#mask0_5_231)">
<path d="M16 29.3333C14.1556 29.3333 12.4222 28.9833 10.8 28.2833C9.1778 27.5833 7.76669 26.6333 6.56669 25.4333C5.36669 24.2333 4.41669 22.8222 3.71669 21.2C3.01669 19.5778 2.66669 17.8444 2.66669 16C2.66669 14.1556 3.01669 12.4222 3.71669 10.8C4.41669 9.17777 5.36669 7.76666 6.56669 6.56666C7.76669 5.36666 9.1778 4.41666 10.8 3.71666C12.4222 3.01666 14.1556 2.66666 16 2.66666C17.8445 2.66666 19.5778 3.01666 21.2 3.71666C22.8222 4.41666 24.2334 5.36666 25.4334 6.56666C26.6334 7.76666 27.5834 9.17777 28.2834 10.8C28.9834 12.4222 29.3334 14.1556 29.3334 16C29.3334 17.8444 28.9834 19.5778 28.2834 21.2C27.5834 22.8222 26.6334 24.2333 25.4334 25.4333C24.2334 26.6333 22.8222 27.5833 21.2 28.2833C19.5778 28.9833 17.8445 29.3333 16 29.3333ZM14.6667 26.6V24C13.9334 24 13.3056 23.7389 12.7834 23.2167C12.2611 22.6944 12 22.0667 12 21.3333V20L5.60002 13.6C5.53335 14 5.47224 14.4 5.41669 14.8C5.36113 15.2 5.33335 15.6 5.33335 16C5.33335 18.6889 6.21669 21.0444 7.98335 23.0667C9.75002 25.0889 11.9778 26.2667 14.6667 26.6ZM23.8667 23.2C24.3111 22.7111 24.7111 22.1833 25.0667 21.6167C25.4222 21.05 25.7167 20.4611 25.95 19.85C26.1834 19.2389 26.3611 18.6111 26.4834 17.9667C26.6056 17.3222 26.6667 16.6667 26.6667 16C26.6667 13.8222 26.0611 11.8333 24.85 10.0333C23.6389 8.23333 22.0222 6.93333 20 6.13333V6.66666C20 7.4 19.7389 8.02777 19.2167 8.55C18.6945 9.07222 18.0667 9.33333 17.3334 9.33333H14.6667V12C14.6667 12.3778 14.5389 12.6944 14.2834 12.95C14.0278 13.2056 13.7111 13.3333 13.3334 13.3333H10.6667V16H18.6667C19.0445 16 19.3611 16.1278 19.6167 16.3833C19.8722 16.6389 20 16.9556 20 17.3333V21.3333H21.3334C21.9111 21.3333 22.4334 21.5056 22.9 21.85C23.3667 22.1944 23.6889 22.6444 23.8667 23.2Z" fill="#1697DF"/>
</g>
</svg>
