<svg width="22" height="22" viewBox="0 0 22 22" fill="none" xmlns="http://www.w3.org/2000/svg">
<mask id="mask0_5_79" style="mask-type:alpha" maskUnits="userSpaceOnUse" x="0" y="0" width="22" height="22">
<rect width="21.76" height="21.76" fill="#D9D9D9"/>
</mask>
<g mask="url(#mask0_5_79)">
<path d="M17.7707 19.04L12.0587 13.328C11.6054 13.6907 11.084 13.9778 10.4947 14.1894C9.90536 14.4009 9.27825 14.5067 8.61336 14.5067C6.96625 14.5067 5.57225 13.9363 4.43137 12.7954C3.29048 11.6545 2.72003 10.2605 2.72003 8.61336C2.72003 6.96625 3.29048 5.57225 4.43137 4.43137C5.57225 3.29048 6.96625 2.72003 8.61336 2.72003C10.2605 2.72003 11.6545 3.29048 12.7954 4.43137C13.9363 5.57225 14.5067 6.96625 14.5067 8.61336C14.5067 9.27825 14.4009 9.90536 14.1894 10.4947C13.9778 11.084 13.6907 11.6054 13.328 12.0587L19.04 17.7707L17.7707 19.04ZM8.61336 12.6934C9.7467 12.6934 10.71 12.2967 11.5034 11.5034C12.2967 10.71 12.6934 9.7467 12.6934 8.61336C12.6934 7.48003 12.2967 6.5167 11.5034 5.72337C10.71 4.93003 9.7467 4.53337 8.61336 4.53337C7.48003 4.53337 6.5167 4.93003 5.72337 5.72337C4.93003 6.5167 4.53337 7.48003 4.53337 8.61336C4.53337 9.7467 4.93003 10.71 5.72337 11.5034C6.5167 12.2967 7.48003 12.6934 8.61336 12.6934Z" fill="#393E46"/>
</g>
</svg>
