<svg width="20" height="15" viewBox="0 0 20 15" fill="none" xmlns="http://www.w3.org/2000/svg">
<path d="M4 15L0 11L1.4 9.55L3 11.15V4C3 2.9 3.39167 1.95833 4.175 1.175C4.95833 0.391667 5.9 0 7 0C8.1 0 9.04167 0.391667 9.825 1.175C10.6083 1.95833 11 2.9 11 4V11C11 11.55 11.1958 12.0208 11.5875 12.4125C11.9792 12.8042 12.45 13 13 13C13.55 13 14.0208 12.8042 14.4125 12.4125C14.8042 12.0208 15 11.55 15 11V3.85L13.4 5.45L12 4L16 0L20 4L18.6 5.45L17 3.85V11C17 12.1 16.6083 13.0417 15.825 13.825C15.0417 14.6083 14.1 15 13 15C11.9 15 10.9583 14.6083 10.175 13.825C9.39167 13.0417 9 12.1 9 11V4C9 3.45 8.80417 2.97917 8.4125 2.5875C8.02083 2.19583 7.55 2 7 2C6.45 2 5.97917 2.19583 5.5875 2.5875C5.19583 2.97917 5 3.45 5 4V11.15L6.6 9.55L8 11L4 15Z" fill="#1ABE34"/>
</svg>
