<svg width="22" height="22" viewBox="0 0 22 22" fill="none" xmlns="http://www.w3.org/2000/svg">
<mask id="mask0_16_15" style="mask-type:alpha" maskUnits="userSpaceOnUse" x="0" y="0" width="22" height="22">
<rect width="21.76" height="21.76" fill="#D9D9D9"/>
</mask>
<g mask="url(#mask0_16_15)">
<path d="M3.62669 18.1334C3.12802 18.1334 2.70113 17.9558 2.34602 17.6007C1.99091 17.2456 1.81335 16.8187 1.81335 16.32V5.44002C1.81335 4.94135 1.99091 4.51447 2.34602 4.15935C2.70113 3.80424 3.12802 3.62669 3.62669 3.62669H12.784C12.7236 3.92891 12.6934 4.23113 12.6934 4.53335C12.6934 4.83558 12.7236 5.1378 12.784 5.44002H3.62669L10.88 9.97335L14.1894 7.91069C14.4009 8.10713 14.6314 8.27713 14.8807 8.42069C15.13 8.56424 15.3907 8.68891 15.6627 8.79469L10.88 11.7867L3.62669 7.25335V16.32H18.1334V8.97602C18.4809 8.90047 18.8058 8.79469 19.108 8.65869C19.4102 8.52269 19.6898 8.35647 19.9467 8.16002V16.32C19.9467 16.8187 19.7691 17.2456 19.414 17.6007C19.0589 17.9558 18.632 18.1334 18.1334 18.1334H3.62669ZM17.2267 7.25335C16.4711 7.25335 15.8289 6.98891 15.3 6.46002C14.7711 5.93113 14.5067 5.28891 14.5067 4.53335C14.5067 3.7778 14.7711 3.13558 15.3 2.60669C15.8289 2.0778 16.4711 1.81335 17.2267 1.81335C17.9822 1.81335 18.6245 2.0778 19.1534 2.60669C19.6822 3.13558 19.9467 3.7778 19.9467 4.53335C19.9467 5.28891 19.6822 5.93113 19.1534 6.46002C18.6245 6.98891 17.9822 7.25335 17.2267 7.25335Z" fill="#393E46"/>
</g>
</svg>
